<?xml version="1.0" standalone="no"?><svg xmlns:xlink="http://www.w3.org/1999/xlink" xmlns="http://www.w3.org/2000/svg" viewBox="0 0 1000 647.0604571079452" preserveAspectRatio="xMaxYMax slice"><g transform="scale(0.9256945023003509)"><rect x="0" y="0" width="1080.2727272727273" height="699" fill="#ffffff"/><rect x="0" y="0" width="63.55" height="63.55" fill="#2b2b2b"/><polygon points="0,0 63.55,0 63.55,63.55" fill="#2cfcea"/><rect x="63.55" y="0" width="63.55" height="63.55" fill="#2cfcea"/><polygon points="63.55,0 127.1,0 63.55,63.55" fill="#2cfcea"/><rect x="127.09" y="0" width="63.55" height="63.55" fill="#2b2b2b"/><polygon points="127.09,0 190.64,0 190.64,63.55" fill="#2cfcea"/><rect x="190.64" y="0" width="63.55" height="63.55" fill="#2cfcea"/><polygon points="254.19,0 254.19,63.55 190.64,63.55" fill="#2b2b2b"/><rect x="254.18" y="0" width="63.55" height="63.55" fill="#2b2b2b"/><polygon points="317.73,0 317.73,63.55 254.18,63.55" fill="#2cfcea"/><rect x="317.73" y="0" width="63.55" height="63.55" fill="#2b2b2b"/><polygon points="317.73,0 381.28000000000003,0 381.28000000000003,63.55" fill="#2b2b2b"/><rect x="381.27" y="0" width="63.55" height="63.55" fill="#2b2b2b"/><polygon points="381.27,0 444.82,0 444.82,63.55" fill="#2b2b2b"/><rect x="444.82" y="0" width="63.55" height="63.55" fill="#2cfcea"/><polygon points="508.37,0 508.37,63.55 444.82,63.55" fill="#2b2b2b"/><rect x="508.36" y="0" width="63.55" height="63.55" fill="#2cfcea"/><polygon points="571.91,0 571.91,63.55 508.36,63.55" fill="#2cfcea"/><rect x="571.91" y="0" width="63.55" height="63.55" fill="#2b2b2b"/><polygon points="571.91,0 635.4599999999999,0 635.4599999999999,63.55" fill="#2b2b2b"/><rect x="635.45" y="0" width="63.55" height="63.55" fill="#2b2b2b"/><polygon points="699,0 699,63.55 635.45,63.55" fill="#2b2b2b"/><rect x="699" y="0" width="63.55" height="63.55" fill="#2cfcea"/><polygon points="699,0 762.55,63.55 699,63.55" fill="#2cfcea"/><rect x="762.55" y="0" width="63.55" height="63.55" fill="#2b2b2b"/><polygon points="762.55,0 826.0999999999999,0 826.0999999999999,63.55" fill="#2cfcea"/><rect x="826.09" y="0" width="63.55" height="63.55" fill="#2cfcea"/><polygon points="826.09,0 889.64,63.55 826.09,63.55" fill="#2cfcea"/><rect x="889.64" y="0" width="63.55" height="63.55" fill="#2b2b2b"/><polygon points="889.64,0 953.1899999999999,0 953.1899999999999,63.55" fill="#2b2b2b"/><rect x="953.18" y="0" width="63.55" height="63.55" fill="#2b2b2b"/><polygon points="1016.7299999999999,0 1016.7299999999999,63.55 953.18,63.55" fill="#2b2b2b"/><rect x="1016.73" y="0" width="63.55" height="63.55" fill="#2b2b2b"/><polygon points="1016.73,0 1080.28,0 1016.73,63.55" fill="#2b2b2b"/><rect x="0" y="63.55" width="63.55" height="63.55" fill="#2b2b2b"/><polygon points="0,63.55 63.55,63.55 0,127.1" fill="#2cfcea"/><rect x="63.55" y="63.55" width="63.55" height="63.55" fill="#2b2b2b"/><polygon points="127.1,63.55 127.1,127.1 63.55,127.1" fill="#2cfcea"/><rect x="127.09" y="63.55" width="63.55" height="63.55" fill="#2cfcea"/><polygon points="190.64,63.55 190.64,127.1 127.09,127.1" fill="#2cfcea"/><rect x="190.64" y="63.55" width="63.55" height="63.55" fill="#2cfcea"/><polygon points="254.19,63.55 254.19,127.1 190.64,127.1" fill="#2b2b2b"/><rect x="254.18" y="63.55" width="63.55" height="63.55" fill="#2cfcea"/><polygon points="317.73,63.55 317.73,127.1 254.18,127.1" fill="#2b2b2b"/><rect x="317.73" y="63.55" width="63.55" height="63.55" fill="#2b2b2b"/><polygon points="317.73,63.55 381.28000000000003,63.55 317.73,127.1" fill="#2b2b2b"/><rect x="381.27" y="63.55" width="63.55" height="63.55" fill="#2b2b2b"/><polygon points="444.82,63.55 444.82,127.1 381.27,127.1" fill="#2cfcea"/><rect x="444.82" y="63.55" width="63.55" height="63.55" fill="#2cfcea"/><polygon points="508.37,63.55 508.37,127.1 444.82,127.1" fill="#2b2b2b"/><rect x="508.36" y="63.55" width="63.55" height="63.55" fill="#2b2b2b"/><polygon points="571.91,63.55 571.91,127.1 508.36,127.1" fill="#2b2b2b"/><rect x="571.91" y="63.55" width="63.55" height="63.55" fill="#2b2b2b"/><polygon points="571.91,63.55 635.4599999999999,127.1 571.91,127.1" fill="#2b2b2b"/><rect x="635.45" y="63.55" width="63.55" height="63.55" fill="#2cfcea"/><polygon points="635.45,63.55 699,127.1 635.45,127.1" fill="#2b2b2b"/><rect x="699" y="63.55" width="63.55" height="63.55" fill="#2cfcea"/><polygon points="699,63.55 762.55,127.1 699,127.1" fill="#2b2b2b"/><rect x="762.55" y="63.55" width="63.55" height="63.55" fill="#2b2b2b"/><polygon points="762.55,63.55 826.0999999999999,127.1 762.55,127.1" fill="#2cfcea"/><rect x="826.09" y="63.55" width="63.55" height="63.55" fill="#2b2b2b"/><polygon points="889.64,63.55 889.64,127.1 826.09,127.1" fill="#2b2b2b"/><rect x="889.64" y="63.55" width="63.55" height="63.55" fill="#2cfcea"/><polygon points="953.1899999999999,63.55 953.1899999999999,127.1 889.64,127.1" fill="#2cfcea"/><rect x="953.18" y="63.55" width="63.55" height="63.55" fill="#2b2b2b"/><polygon points="1016.7299999999999,63.55 1016.7299999999999,127.1 953.18,127.1" fill="#2b2b2b"/><rect x="1016.73" y="63.55" width="63.55" height="63.55" fill="#2b2b2b"/><polygon points="1080.28,63.55 1080.28,127.1 1016.73,127.1" fill="#2b2b2b"/><rect x="0" y="127.09" width="63.55" height="63.55" fill="#2cfcea"/><polygon points="0,127.09 63.55,190.64 0,190.64" fill="#2b2b2b"/><rect x="63.55" y="127.09" width="63.55" height="63.55" fill="#2b2b2b"/><polygon points="127.1,127.09 127.1,190.64 63.55,190.64" fill="#2cfcea"/><rect x="127.09" y="127.09" width="63.55" height="63.55" fill="#2b2b2b"/><polygon points="127.09,127.09 190.64,127.09 190.64,190.64" fill="#2b2b2b"/><rect x="190.64" y="127.09" width="63.55" height="63.55" fill="#2cfcea"/><polygon points="190.64,127.09 254.19,190.64 190.64,190.64" fill="#2cfcea"/><rect x="254.18" y="127.09" width="63.55" height="63.55" fill="#2cfcea"/><polygon points="254.18,127.09 317.73,127.09 317.73,190.64" fill="#2b2b2b"/><rect x="317.73" y="127.09" width="63.55" height="63.55" fill="#2b2b2b"/><polygon points="317.73,127.09 381.28000000000003,127.09 381.28000000000003,190.64" fill="#2b2b2b"/><rect x="381.27" y="127.09" width="63.55" height="63.55" fill="#2cfcea"/><polygon points="381.27,127.09 444.82,127.09 381.27,190.64" fill="#2b2b2b"/><rect x="444.82" y="127.09" width="63.55" height="63.55" fill="#2b2b2b"/><polygon points="508.37,127.09 508.37,190.64 444.82,190.64" fill="#2cfcea"/><rect x="508.36" y="127.09" width="63.55" height="63.55" fill="#2cfcea"/><polygon points="571.91,127.09 571.91,190.64 508.36,190.64" fill="#2b2b2b"/><rect x="571.91" y="127.09" width="63.55" height="63.55" fill="#2b2b2b"/><polygon points="571.91,127.09 635.4599999999999,190.64 571.91,190.64" fill="#2b2b2b"/><rect x="635.45" y="127.09" width="63.55" height="63.55" fill="#2cfcea"/><polygon points="635.45,127.09 699,190.64 635.45,190.64" fill="#2cfcea"/><rect x="699" y="127.09" width="63.55" height="63.55" fill="#2cfcea"/><polygon points="699,127.09 762.55,190.64 699,190.64" fill="#2cfcea"/><rect x="762.55" y="127.09" width="63.55" height="63.55" fill="#2b2b2b"/><polygon points="826.0999999999999,127.09 826.0999999999999,190.64 762.55,190.64" fill="#2b2b2b"/><rect x="826.09" y="127.09" width="63.55" height="63.55" fill="#2b2b2b"/><polygon points="826.09,127.09 889.64,127.09 826.09,190.64" fill="#2b2b2b"/><rect x="889.64" y="127.09" width="63.55" height="63.55" fill="#2cfcea"/><polygon points="889.64,127.09 953.1899999999999,127.09 889.64,190.64" fill="#2cfcea"/><rect x="953.18" y="127.09" width="63.55" height="63.55" fill="#2cfcea"/><polygon points="953.18,127.09 1016.7299999999999,127.09 953.18,190.64" fill="#2b2b2b"/><rect x="1016.73" y="127.09" width="63.55" height="63.55" fill="#2b2b2b"/><polygon points="1016.73,127.09 1080.28,190.64 1016.73,190.64" fill="#2b2b2b"/><rect x="0" y="190.64" width="63.55" height="63.55" fill="#2cfcea"/><polygon points="0,190.64 63.55,190.64 0,254.19" fill="#2cfcea"/><rect x="63.55" y="190.64" width="63.55" height="63.55" fill="#2cfcea"/><polygon points="63.55,190.64 127.1,190.64 63.55,254.19" fill="#2cfcea"/><rect x="127.09" y="190.64" width="63.55" height="63.55" fill="#2b2b2b"/><polygon points="190.64,190.64 190.64,254.19 127.09,254.19" fill="#2b2b2b"/><rect x="190.64" y="190.64" width="63.55" height="63.55" fill="#2b2b2b"/><polygon points="254.19,190.64 254.19,254.19 190.64,254.19" fill="#2cfcea"/><rect x="254.18" y="190.64" width="63.55" height="63.55" fill="#2cfcea"/><polygon points="254.18,190.64 317.73,254.19 254.18,254.19" fill="#2b2b2b"/><rect x="317.73" y="190.64" width="63.55" height="63.55" fill="#2b2b2b"/><polygon points="317.73,190.64 381.28000000000003,254.19 317.73,254.19" fill="#2b2b2b"/><rect x="381.27" y="190.64" width="63.55" height="63.55" fill="#2b2b2b"/><polygon points="381.27,190.64 444.82,190.64 444.82,254.19" fill="#2b2b2b"/><rect x="444.82" y="190.64" width="63.55" height="63.55" fill="#2cfcea"/><polygon points="444.82,190.64 508.37,254.19 444.82,254.19" fill="#2b2b2b"/><rect x="508.36" y="190.64" width="63.55" height="63.55" fill="#2cfcea"/><polygon points="508.36,190.64 571.91,190.64 508.36,254.19" fill="#2b2b2b"/><rect x="571.91" y="190.64" width="63.55" height="63.55" fill="#2cfcea"/><polygon points="635.4599999999999,190.64 635.4599999999999,254.19 571.91,254.19" fill="#2cfcea"/><rect x="635.45" y="190.64" width="63.55" height="63.55" fill="#2cfcea"/><polygon points="635.45,190.64 699,190.64 699,254.19" fill="#2b2b2b"/><rect x="699" y="190.64" width="63.55" height="63.55" fill="#2b2b2b"/><polygon points="699,190.64 762.55,190.64 699,254.19" fill="#2cfcea"/><rect x="762.55" y="190.64" width="63.55" height="63.55" fill="#2b2b2b"/><polygon points="762.55,190.64 826.0999999999999,190.64 762.55,254.19" fill="#2cfcea"/><rect x="826.09" y="190.64" width="63.55" height="63.55" fill="#2cfcea"/><polygon points="826.09,190.64 889.64,254.19 826.09,254.19" fill="#2cfcea"/><rect x="889.64" y="190.64" width="63.55" height="63.55" fill="#2b2b2b"/><polygon points="953.1899999999999,190.64 953.1899999999999,254.19 889.64,254.19" fill="#2cfcea"/><rect x="953.18" y="190.64" width="63.55" height="63.55" fill="#2b2b2b"/><polygon points="953.18,190.64 1016.7299999999999,254.19 953.18,254.19" fill="#2cfcea"/><rect x="1016.73" y="190.64" width="63.55" height="63.55" fill="#2cfcea"/><polygon points="1016.73,190.64 1080.28,190.64 1016.73,254.19" fill="#2cfcea"/><rect x="0" y="254.18" width="63.55" height="63.55" fill="#2cfcea"/><polygon points="63.55,254.18 63.55,317.73 0,317.73" fill="#2cfcea"/><rect x="63.55" y="254.18" width="63.55" height="63.55" fill="#2b2b2b"/><polygon points="63.55,254.18 127.1,317.73 63.55,317.73" fill="#2b2b2b"/><rect x="127.09" y="254.18" width="63.55" height="63.55" fill="#2cfcea"/><polygon points="190.64,254.18 190.64,317.73 127.09,317.73" fill="#2b2b2b"/><rect x="190.64" y="254.18" width="63.55" height="63.55" fill="#2cfcea"/><polygon points="190.64,254.18 254.19,254.18 254.19,317.73" fill="#2b2b2b"/><rect x="254.18" y="254.18" width="63.55" height="63.55" fill="#2cfcea"/><polygon points="317.73,254.18 317.73,317.73 254.18,317.73" fill="#2b2b2b"/><rect x="317.73" y="254.18" width="63.55" height="63.55" fill="#2b2b2b"/><polygon points="317.73,254.18 381.28000000000003,254.18 317.73,317.73" fill="#2cfcea"/><rect x="381.27" y="254.18" width="63.55" height="63.55" fill="#2b2b2b"/><polygon points="381.27,254.18 444.82,254.18 444.82,317.73" fill="#2b2b2b"/><rect x="444.82" y="254.18" width="63.55" height="63.55" fill="#2b2b2b"/><polygon points="444.82,254.18 508.37,254.18 508.37,317.73" fill="#2cfcea"/><rect x="508.36" y="254.18" width="63.55" height="63.55" fill="#2cfcea"/><polygon points="571.91,254.18 571.91,317.73 508.36,317.73" fill="#2b2b2b"/><rect x="571.91" y="254.18" width="63.55" height="63.55" fill="#2cfcea"/><polygon points="635.4599999999999,254.18 635.4599999999999,317.73 571.91,317.73" fill="#2cfcea"/><rect x="635.45" y="254.18" width="63.55" height="63.55" fill="#2b2b2b"/><polygon points="699,254.18 699,317.73 635.45,317.73" fill="#2b2b2b"/><rect x="699" y="254.18" width="63.55" height="63.55" fill="#2cfcea"/><polygon points="699,254.18 762.55,317.73 699,317.73" fill="#2cfcea"/><rect x="762.55" y="254.18" width="63.55" height="63.55" fill="#2cfcea"/><polygon points="826.0999999999999,254.18 826.0999999999999,317.73 762.55,317.73" fill="#2cfcea"/><rect x="826.09" y="254.18" width="63.55" height="63.55" fill="#2b2b2b"/><polygon points="889.64,254.18 889.64,317.73 826.09,317.73" fill="#2b2b2b"/><rect x="889.64" y="254.18" width="63.55" height="63.55" fill="#2b2b2b"/><polygon points="889.64,254.18 953.1899999999999,254.18 889.64,317.73" fill="#2cfcea"/><rect x="953.18" y="254.18" width="63.55" height="63.55" fill="#2cfcea"/><polygon points="953.18,254.18 1016.7299999999999,317.73 953.18,317.73" fill="#2cfcea"/><rect x="1016.73" y="254.18" width="63.55" height="63.55" fill="#2b2b2b"/><polygon points="1016.73,254.18 1080.28,254.18 1080.28,317.73" fill="#2b2b2b"/><rect x="0" y="317.73" width="63.55" height="63.55" fill="#2b2b2b"/><polygon points="0,317.73 63.55,317.73 0,381.28000000000003" fill="#2cfcea"/><rect x="63.55" y="317.73" width="63.55" height="63.55" fill="#2b2b2b"/><polygon points="63.55,317.73 127.1,381.28000000000003 63.55,381.28000000000003" fill="#2b2b2b"/><rect x="127.09" y="317.73" width="63.55" height="63.55" fill="#2b2b2b"/><polygon points="127.09,317.73 190.64,317.73 127.09,381.28000000000003" fill="#2b2b2b"/><rect x="190.64" y="317.73" width="63.55" height="63.55" fill="#2b2b2b"/><polygon points="190.64,317.73 254.19,381.28000000000003 190.64,381.28000000000003" fill="#2b2b2b"/><rect x="254.18" y="317.73" width="63.55" height="63.55" fill="#2b2b2b"/><polygon points="254.18,317.73 317.73,317.73 317.73,381.28000000000003" fill="#2b2b2b"/><rect x="317.73" y="317.73" width="63.55" height="63.55" fill="#2cfcea"/><polygon points="381.28000000000003,317.73 381.28000000000003,381.28000000000003 317.73,381.28000000000003" fill="#2b2b2b"/><rect x="381.27" y="317.73" width="63.55" height="63.55" fill="#2cfcea"/><polygon points="381.27,317.73 444.82,381.28000000000003 381.27,381.28000000000003" fill="#2cfcea"/><rect x="444.82" y="317.73" width="63.55" height="63.55" fill="#2cfcea"/><polygon points="444.82,317.73 508.37,317.73 508.37,381.28000000000003" fill="#2b2b2b"/><rect x="508.36" y="317.73" width="63.55" height="63.55" fill="#2cfcea"/><polygon points="571.91,317.73 571.91,381.28000000000003 508.36,381.28000000000003" fill="#2b2b2b"/><rect x="571.91" y="317.73" width="63.55" height="63.55" fill="#2cfcea"/><polygon points="571.91,317.73 635.4599999999999,317.73 635.4599999999999,381.28000000000003" fill="#2b2b2b"/><rect x="635.45" y="317.73" width="63.55" height="63.55" fill="#2cfcea"/><polygon points="699,317.73 699,381.28000000000003 635.45,381.28000000000003" fill="#2b2b2b"/><rect x="699" y="317.73" width="63.55" height="63.55" fill="#2b2b2b"/><polygon points="699,317.73 762.55,317.73 699,381.28000000000003" fill="#2cfcea"/><rect x="762.55" y="317.73" width="63.55" height="63.55" fill="#2b2b2b"/><polygon points="762.55,317.73 826.0999999999999,317.73 762.55,381.28000000000003" fill="#2b2b2b"/><rect x="826.09" y="317.73" width="63.55" height="63.55" fill="#2cfcea"/><polygon points="826.09,317.73 889.64,381.28000000000003 826.09,381.28000000000003" fill="#2b2b2b"/><rect x="889.64" y="317.73" width="63.55" height="63.55" fill="#2b2b2b"/><polygon points="889.64,317.73 953.1899999999999,317.73 953.1899999999999,381.28000000000003" fill="#2cfcea"/><rect x="953.18" y="317.73" width="63.55" height="63.55" fill="#2b2b2b"/><polygon points="953.18,317.73 1016.7299999999999,317.73 953.18,381.28000000000003" fill="#2b2b2b"/><rect x="1016.73" y="317.73" width="63.55" height="63.55" fill="#2b2b2b"/><polygon points="1080.28,317.73 1080.28,381.28000000000003 1016.73,381.28000000000003" fill="#2b2b2b"/><rect x="0" y="381.27" width="63.55" height="63.55" fill="#2cfcea"/><polygon points="0,381.27 63.55,381.27 63.55,444.82" fill="#2b2b2b"/><rect x="63.55" y="381.27" width="63.55" height="63.55" fill="#2cfcea"/><polygon points="63.55,381.27 127.1,381.27 127.1,444.82" fill="#2b2b2b"/><rect x="127.09" y="381.27" width="63.55" height="63.55" fill="#2b2b2b"/><polygon points="127.09,381.27 190.64,381.27 127.09,444.82" fill="#2cfcea"/><rect x="190.64" y="381.27" width="63.55" height="63.55" fill="#2b2b2b"/><polygon points="190.64,381.27 254.19,381.27 190.64,444.82" fill="#2cfcea"/><rect x="254.18" y="381.27" width="63.55" height="63.55" fill="#2b2b2b"/><polygon points="254.18,381.27 317.73,381.27 317.73,444.82" fill="#2b2b2b"/><rect x="317.73" y="381.27" width="63.55" height="63.55" fill="#2cfcea"/><polygon points="381.28000000000003,381.27 381.28000000000003,444.82 317.73,444.82" fill="#2cfcea"/><rect x="381.27" y="381.27" width="63.55" height="63.55" fill="#2b2b2b"/><polygon points="381.27,381.27 444.82,381.27 381.27,444.82" fill="#2cfcea"/><rect x="444.82" y="381.27" width="63.55" height="63.55" fill="#2b2b2b"/><polygon points="444.82,381.27 508.37,381.27 444.82,444.82" fill="#2b2b2b"/><rect x="508.36" y="381.27" width="63.55" height="63.55" fill="#2cfcea"/><polygon points="508.36,381.27 571.91,444.82 508.36,444.82" fill="#2cfcea"/><rect x="571.91" y="381.27" width="63.55" height="63.55" fill="#2b2b2b"/><polygon points="571.91,381.27 635.4599999999999,444.82 571.91,444.82" fill="#2b2b2b"/><rect x="635.45" y="381.27" width="63.55" height="63.55" fill="#2cfcea"/><polygon points="635.45,381.27 699,444.82 635.45,444.82" fill="#2b2b2b"/><rect x="699" y="381.27" width="63.55" height="63.55" fill="#2b2b2b"/><polygon points="699,381.27 762.55,381.27 699,444.82" fill="#2b2b2b"/><rect x="762.55" y="381.27" width="63.55" height="63.55" fill="#2b2b2b"/><polygon points="762.55,381.27 826.0999999999999,381.27 826.0999999999999,444.82" fill="#2cfcea"/><rect x="826.09" y="381.27" width="63.55" height="63.55" fill="#2cfcea"/><polygon points="826.09,381.27 889.64,381.27 826.09,444.82" fill="#2b2b2b"/><rect x="889.64" y="381.27" width="63.55" height="63.55" fill="#2cfcea"/><polygon points="889.64,381.27 953.1899999999999,444.82 889.64,444.82" fill="#2cfcea"/><rect x="953.18" y="381.27" width="63.55" height="63.55" fill="#2b2b2b"/><polygon points="953.18,381.27 1016.7299999999999,444.82 953.18,444.82" fill="#2cfcea"/><rect x="1016.73" y="381.27" width="63.55" height="63.55" fill="#2b2b2b"/><polygon points="1016.73,381.27 1080.28,444.82 1016.73,444.82" fill="#2cfcea"/><rect x="0" y="444.82" width="63.55" height="63.55" fill="#2cfcea"/><polygon points="63.55,444.82 63.55,508.37 0,508.37" fill="#2cfcea"/><rect x="63.55" y="444.82" width="63.55" height="63.55" fill="#2cfcea"/><polygon points="63.55,444.82 127.1,444.82 127.1,508.37" fill="#2b2b2b"/><rect x="127.09" y="444.82" width="63.55" height="63.55" fill="#2b2b2b"/><polygon points="127.09,444.82 190.64,444.82 190.64,508.37" fill="#2b2b2b"/><rect x="190.64" y="444.82" width="63.55" height="63.55" fill="#2cfcea"/><polygon points="190.64,444.82 254.19,444.82 254.19,508.37" fill="#2b2b2b"/><rect x="254.18" y="444.82" width="63.55" height="63.55" fill="#2cfcea"/><polygon points="317.73,444.82 317.73,508.37 254.18,508.37" fill="#2b2b2b"/><rect x="317.73" y="444.82" width="63.55" height="63.55" fill="#2cfcea"/><polygon points="381.28000000000003,444.82 381.28000000000003,508.37 317.73,508.37" fill="#2cfcea"/><rect x="381.27" y="444.82" width="63.55" height="63.55" fill="#2cfcea"/><polygon points="381.27,444.82 444.82,444.82 381.27,508.37" fill="#2b2b2b"/><rect x="444.82" y="444.82" width="63.55" height="63.55" fill="#2cfcea"/><polygon points="444.82,444.82 508.37,444.82 444.82,508.37" fill="#2b2b2b"/><rect x="508.36" y="444.82" width="63.55" height="63.55" fill="#2b2b2b"/><polygon points="508.36,444.82 571.91,508.37 508.36,508.37" fill="#2cfcea"/><rect x="571.91" y="444.82" width="63.55" height="63.55" fill="#2cfcea"/><polygon points="571.91,444.82 635.4599999999999,444.82 571.91,508.37" fill="#2b2b2b"/><rect x="635.45" y="444.82" width="63.55" height="63.55" fill="#2cfcea"/><polygon points="699,444.82 699,508.37 635.45,508.37" fill="#2b2b2b"/><rect x="699" y="444.82" width="63.55" height="63.55" fill="#2cfcea"/><polygon points="762.55,444.82 762.55,508.37 699,508.37" fill="#2cfcea"/><rect x="762.55" y="444.82" width="63.55" height="63.55" fill="#2b2b2b"/><polygon points="762.55,444.82 826.0999999999999,508.37 762.55,508.37" fill="#2cfcea"/><rect x="826.09" y="444.82" width="63.55" height="63.55" fill="#2b2b2b"/><polygon points="889.64,444.82 889.64,508.37 826.09,508.37" fill="#2b2b2b"/><rect x="889.64" y="444.82" width="63.55" height="63.55" fill="#2cfcea"/><polygon points="889.64,444.82 953.1899999999999,444.82 953.1899999999999,508.37" fill="#2cfcea"/><rect x="953.18" y="444.82" width="63.55" height="63.55" fill="#2cfcea"/><polygon points="953.18,444.82 1016.7299999999999,508.37 953.18,508.37" fill="#2b2b2b"/><rect x="1016.73" y="444.82" width="63.55" height="63.55" fill="#2cfcea"/><polygon points="1016.73,444.82 1080.28,444.82 1016.73,508.37" fill="#2b2b2b"/><rect x="0" y="508.36" width="63.55" height="63.55" fill="#2cfcea"/><polygon points="63.55,508.36 63.55,571.91 0,571.91" fill="#2b2b2b"/><rect x="63.55" y="508.36" width="63.55" height="63.55" fill="#2cfcea"/><polygon points="63.55,508.36 127.1,508.36 127.1,571.91" fill="#2b2b2b"/><rect x="127.09" y="508.36" width="63.55" height="63.55" fill="#2cfcea"/><polygon points="127.09,508.36 190.64,508.36 127.09,571.91" fill="#2cfcea"/><rect x="190.64" y="508.36" width="63.55" height="63.55" fill="#2b2b2b"/><polygon points="254.19,508.36 254.19,571.91 190.64,571.91" fill="#2cfcea"/><rect x="254.18" y="508.36" width="63.55" height="63.55" fill="#2cfcea"/><polygon points="254.18,508.36 317.73,508.36 317.73,571.91" fill="#2cfcea"/><rect x="317.73" y="508.36" width="63.55" height="63.55" fill="#2b2b2b"/><polygon points="317.73,508.36 381.28000000000003,508.36 317.73,571.91" fill="#2cfcea"/><rect x="381.27" y="508.36" width="63.55" height="63.55" fill="#2cfcea"/><polygon points="444.82,508.36 444.82,571.91 381.27,571.91" fill="#2b2b2b"/><rect x="444.82" y="508.36" width="63.55" height="63.55" fill="#2cfcea"/><polygon points="508.37,508.36 508.37,571.91 444.82,571.91" fill="#2b2b2b"/><rect x="508.36" y="508.36" width="63.55" height="63.55" fill="#2cfcea"/><polygon points="508.36,508.36 571.91,571.91 508.36,571.91" fill="#2b2b2b"/><rect x="571.91" y="508.36" width="63.55" height="63.55" fill="#2cfcea"/><polygon points="571.91,508.36 635.4599999999999,508.36 635.4599999999999,571.91" fill="#2b2b2b"/><rect x="635.45" y="508.36" width="63.55" height="63.55" fill="#2b2b2b"/><polygon points="635.45,508.36 699,571.91 635.45,571.91" fill="#2b2b2b"/><rect x="699" y="508.36" width="63.55" height="63.55" fill="#2cfcea"/><polygon points="699,508.36 762.55,508.36 699,571.91" fill="#2cfcea"/><rect x="762.55" y="508.36" width="63.55" height="63.55" fill="#2b2b2b"/><polygon points="762.55,508.36 826.0999999999999,571.91 762.55,571.91" fill="#2cfcea"/><rect x="826.09" y="508.36" width="63.55" height="63.55" fill="#2b2b2b"/><polygon points="826.09,508.36 889.64,571.91 826.09,571.91" fill="#2b2b2b"/><rect x="889.64" y="508.36" width="63.55" height="63.55" fill="#2cfcea"/><polygon points="953.1899999999999,508.36 953.1899999999999,571.91 889.64,571.91" fill="#2cfcea"/><rect x="953.18" y="508.36" width="63.55" height="63.55" fill="#2cfcea"/><polygon points="1016.7299999999999,508.36 1016.7299999999999,571.91 953.18,571.91" fill="#2b2b2b"/><rect x="1016.73" y="508.36" width="63.55" height="63.55" fill="#2b2b2b"/><polygon points="1016.73,508.36 1080.28,508.36 1080.28,571.91" fill="#2cfcea"/><rect x="0" y="571.91" width="63.55" height="63.55" fill="#2cfcea"/><polygon points="0,571.91 63.55,635.4599999999999 0,635.4599999999999" fill="#2b2b2b"/><rect x="63.55" y="571.91" width="63.55" height="63.55" fill="#2b2b2b"/><polygon points="127.1,571.91 127.1,635.4599999999999 63.55,635.4599999999999" fill="#2cfcea"/><rect x="127.09" y="571.91" width="63.55" height="63.55" fill="#2b2b2b"/><polygon points="190.64,571.91 190.64,635.4599999999999 127.09,635.4599999999999" fill="#2cfcea"/><rect x="190.64" y="571.91" width="63.55" height="63.55" fill="#2cfcea"/><polygon points="190.64,571.91 254.19,571.91 190.64,635.4599999999999" fill="#2b2b2b"/><rect x="254.18" y="571.91" width="63.55" height="63.55" fill="#2b2b2b"/><polygon points="317.73,571.91 317.73,635.4599999999999 254.18,635.4599999999999" fill="#2b2b2b"/><rect x="317.73" y="571.91" width="63.55" height="63.55" fill="#2cfcea"/><polygon points="317.73,571.91 381.28000000000003,635.4599999999999 317.73,635.4599999999999" fill="#2cfcea"/><rect x="381.27" y="571.91" width="63.55" height="63.55" fill="#2b2b2b"/><polygon points="381.27,571.91 444.82,635.4599999999999 381.27,635.4599999999999" fill="#2b2b2b"/><rect x="444.82" y="571.91" width="63.55" height="63.55" fill="#2b2b2b"/><polygon points="444.82,571.91 508.37,571.91 508.37,635.4599999999999" fill="#2cfcea"/><rect x="508.36" y="571.91" width="63.55" height="63.55" fill="#2cfcea"/><polygon points="508.36,571.91 571.91,635.4599999999999 508.36,635.4599999999999" fill="#2cfcea"/><rect x="571.91" y="571.91" width="63.55" height="63.55" fill="#2b2b2b"/><polygon points="635.4599999999999,571.91 635.4599999999999,635.4599999999999 571.91,635.4599999999999" fill="#2b2b2b"/><rect x="635.45" y="571.91" width="63.55" height="63.55" fill="#2cfcea"/><polygon points="635.45,571.91 699,571.91 635.45,635.4599999999999" fill="#2cfcea"/><rect x="699" y="571.91" width="63.55" height="63.55" fill="#2b2b2b"/><polygon points="699,571.91 762.55,571.91 762.55,635.4599999999999" fill="#2b2b2b"/><rect x="762.55" y="571.91" width="63.55" height="63.55" fill="#2b2b2b"/><polygon points="762.55,571.91 826.0999999999999,571.91 826.0999999999999,635.4599999999999" fill="#2cfcea"/><rect x="826.09" y="571.91" width="63.55" height="63.55" fill="#2cfcea"/><polygon points="826.09,571.91 889.64,635.4599999999999 826.09,635.4599999999999" fill="#2cfcea"/><rect x="889.64" y="571.91" width="63.55" height="63.55" fill="#2cfcea"/><polygon points="889.64,571.91 953.1899999999999,571.91 889.64,635.4599999999999" fill="#2b2b2b"/><rect x="953.18" y="571.91" width="63.55" height="63.55" fill="#2cfcea"/><polygon points="1016.7299999999999,571.91 1016.7299999999999,635.4599999999999 953.18,635.4599999999999" fill="#2b2b2b"/><rect x="1016.73" y="571.91" width="63.55" height="63.55" fill="#2b2b2b"/><polygon points="1016.73,571.91 1080.28,571.91 1080.28,635.4599999999999" fill="#2cfcea"/><rect x="0" y="635.45" width="63.55" height="63.55" fill="#2cfcea"/><polygon points="0,635.45 63.55,699 0,699" fill="#2cfcea"/><rect x="63.55" y="635.45" width="63.55" height="63.55" fill="#2cfcea"/><polygon points="63.55,635.45 127.1,635.45 127.1,699" fill="#2cfcea"/><rect x="127.09" y="635.45" width="63.55" height="63.55" fill="#2cfcea"/><polygon points="127.09,635.45 190.64,635.45 127.09,699" fill="#2b2b2b"/><rect x="190.64" y="635.45" width="63.55" height="63.55" fill="#2cfcea"/><polygon points="190.64,635.45 254.19,635.45 190.64,699" fill="#2b2b2b"/><rect x="254.18" y="635.45" width="63.55" height="63.55" fill="#2b2b2b"/><polygon points="254.18,635.45 317.73,635.45 254.18,699" fill="#2cfcea"/><rect x="317.73" y="635.45" width="63.55" height="63.55" fill="#2cfcea"/><polygon points="317.73,635.45 381.28000000000003,635.45 381.28000000000003,699" fill="#2b2b2b"/><rect x="381.27" y="635.45" width="63.55" height="63.55" fill="#2b2b2b"/><polygon points="381.27,635.45 444.82,699 381.27,699" fill="#2cfcea"/><rect x="444.82" y="635.45" width="63.55" height="63.55" fill="#2cfcea"/><polygon points="444.82,635.45 508.37,635.45 444.82,699" fill="#2cfcea"/><rect x="508.36" y="635.45" width="63.55" height="63.55" fill="#2cfcea"/><polygon points="508.36,635.45 571.91,635.45 571.91,699" fill="#2b2b2b"/><rect x="571.91" y="635.45" width="63.55" height="63.55" fill="#2cfcea"/><polygon points="571.91,635.45 635.4599999999999,635.45 571.91,699" fill="#2b2b2b"/><rect x="635.45" y="635.45" width="63.55" height="63.55" fill="#2cfcea"/><polygon points="635.45,635.45 699,635.45 699,699" fill="#2b2b2b"/><rect x="699" y="635.45" width="63.55" height="63.55" fill="#2b2b2b"/><polygon points="699,635.45 762.55,635.45 762.55,699" fill="#2cfcea"/><rect x="762.55" y="635.45" width="63.55" height="63.55" fill="#2b2b2b"/><polygon points="826.0999999999999,635.45 826.0999999999999,699 762.55,699" fill="#2b2b2b"/><rect x="826.09" y="635.45" width="63.55" height="63.55" fill="#2b2b2b"/><polygon points="826.09,635.45 889.64,635.45 889.64,699" fill="#2b2b2b"/><rect x="889.64" y="635.45" width="63.55" height="63.55" fill="#2cfcea"/><polygon points="953.1899999999999,635.45 953.1899999999999,699 889.64,699" fill="#2b2b2b"/><rect x="953.18" y="635.45" width="63.55" height="63.55" fill="#2b2b2b"/><polygon points="953.18,635.45 1016.7299999999999,635.45 1016.7299999999999,699" fill="#2b2b2b"/><rect x="1016.73" y="635.45" width="63.55" height="63.55" fill="#2cfcea"/><polygon points="1016.73,635.45 1080.28,699 1016.73,699" fill="#2b2b2b"/></g></svg>